File Name
Game of Death 2010 720p BRRip H264.mp4
File Size
Format : MPEG-4
Format profile : Base Media
Codec ID : isom
File size : 2.07 GiB
Duration : 1h 25mn
Overall bit rate : 3 451 Kbps
Video
ID : 1
Format : AVC
Format/Info : Advanced Video Codec
Format profile : High@L4.1
Format settings, CABAC : Yes
Format settings, ReFrames : 3 frames
Codec ID : avc1
Codec ID/Info : Advanced Video Coding
Duration : 1h 25mn
Bit rate mode : Variable
Bit rate : 2 999 Kbps
Maximum bit rate : 19.8 Mbps
Width : 1 280 pixels
Height : 544 pixels
Display aspect ratio : 2.35:1
Frame rate mode : Constant
Frame rate : 23.976 fps
Resolution : 24 bits
Colorimetry : 4:2:0
Scan type : Progressive
Bits/(Pixel*Frame) : 0.180
Stream size : 1.80 GiB (87%)
Audio #1
ID : 2
Format : AAC
Format/Info : Advanced Audio Codec
Format version : Version 4
Format profile : LC
Format settings, SBR : No
Codec ID : 40
Duration : 1h 25mn
Bit rate mode : Variable
Bit rate : 128 Kbps
Maximum bit rate : 136 Kbps
Channel(s) : 2 channels
Channel positions : L R
Sampling rate : 48.0 KHz
Resolution : 16 bits
Stream size : 78.7 MiB (4%)
Audio #2
ID : 3
Format : AAC
Format/Info : Advanced Audio Codec
Format version : Version 4
Format profile : LC
Format settings, SBR : No
Codec ID : 40
Duration : 1h 25mn
Bit rate mode : Variable
Bit rate : 320 Kbps
Maximum bit rate : 332 Kbps
Channel(s) : 6 channels
Channel positions : Front: L C R, Rear: L R, LFE
Sampling rate : 48.0 KHz
Resolution : 16 bits
Stream size : 196 MiB (9%)
English SRT : ----
Language : English
Info Hash : 98620B8E0E58C36262C09FE118EA0BF10CD23078
 
http://www.imdb.com/title/tt1446072/

Release Date: 2010 (USA)
Genre: Action | Adventure
Plot: A diplomat's bodyguard and company are injured in a botched assassination attempt. They're all taken to the same hospital, where the bodyguard teams up with a nurse to protect the diplomat from a team of ruthless assassins. The nurse soon learns that there is more to this sticky situation than expected.
Cast:
Wesley Snipes ... Agent Marcus
Zoe Bell ... Floria
Gary Daniels ... Zander
Robert Davi ... Smith
Ele Bardha ... Security Guy #1
Simon Rhee ... Stairwell assasin
Ho-Sung Pak ... Agent #2 / Big mental
Frank Zieger ... Rooftop Cop
Vladimir Tevlovski ... Agent
Stacie Hadgikosti ... Annie
LaDon Drummond ... Jane
Darcy Leutzinger ... SWAT Commander
Richard Goteri ... The Visitor
Quinn Duffy ... Redvale
Dailyn Matthews ... Nurse Rebecca
